# xmcd CD database file
#
# Track frame offsets:
#	150
#	10007
#	33488
#	56245
#	73577
#	101884
#	124266
#	142348
#	159766
#	175323
#	183917
#	205298
#	232529
#	252498
#
# Disc length: 3624 seconds
#
# Revision: 0
# Processed by: cddbd v1.5PL3 Copyright (c) Steve Scherf et al.
# Submitted via: CDex 1.51
#
DISCID=c40e260e
DTITLE=Sojiro - Acoustic World 42
DYEAR=1997
DGENRE=New Age
TTITLE0=(Chinese Titles)
TTITLE1=(Chinese Titles)
TTITLE2=(Chinese Titles)
TTITLE3=(Chinese Titles)
TTITLE4=(Chinese Titles)
TTITLE5=(Chinese Titles)
TTITLE6=(Chinese Titles)
TTITLE7=(Chinese Titles)
TTITLE8=(Chinese Titles)
TTITLE9=(Chinese Titles)
TTITLE10=(Chinese Titles)
TTITLE11=(Chinese Titles)
TTITLE12=(Chinese Titles)
TTITLE13=(Chinese Titles)
EXTD=YEAR: 1997
EXTT0=
EXTT1=
EXTT2=
EXTT3=
EXTT4=
EXTT5=
EXTT6=
EXTT7=
EXTT8=
EXTT9=
EXTT10=
EXTT11=
EXTT12=
EXTT13=
PLAYORDER=
